<svg xmlns="http://www.w3.org/2000/svg" version="1.1" xmlns:xlink="http://www.w3.org/1999/xlink" xmlns:svgjs="http://svgjs.dev/svgjs" width="1000" height="1000" viewBox="0 0 1000 1000"><g transform="matrix(1,0,0,1,-0.14221556886212738,-0.14221556886229791)"><svg viewBox="0 0 334 334" data-background-color="#ffffff" preserveAspectRatio="xMidYMid meet" height="1000" width="1000" xmlns="http://www.w3.org/2000/svg" xmlns:xlink="http://www.w3.org/1999/xlink"><g id="tight-bounds" transform="matrix(1,0,0,1,0.04749999999998522,0.04750000000001364)"><svg viewBox="0 0 333.90454557049503 333.90454557049503" height="333.90454557049503" width="333.90454557049503"><g><svg></svg></g><g><svg viewBox="0 0 333.90454557049503 333.90454557049503" height="333.90454557049503" width="333.90454557049503"><g><path d="M0 166.952c0-92.205 74.747-166.952 166.952-166.952 92.205 0 166.952 74.747 166.953 166.952 0 92.205-74.747 166.952-166.953 166.953-92.205 0-166.952-74.747-166.952-166.953zM166.952 326.507c88.12 0 159.555-71.435 159.555-159.555 0-88.12-71.435-159.555-159.555-159.555-88.12 0-159.555 71.435-159.555 159.555 0 88.12 71.435 159.555 159.555 159.555z" data-fill-palette-color="tertiary" fill="#990012" stroke="transparent"></path><ellipse rx="160.27418187383762" ry="160.27418187383762" cx="166.95227278524752" cy="166.95227278524752" fill="#990012" stroke="transparent" stroke-width="0" fill-opacity="1" data-fill-palette-color="tertiary"></ellipse></g><g transform="matrix(1,0,0,1,93.57557162678262,71.17305217166896)"><svg viewBox="0 0 146.7534023169298 191.55844122715712" height="191.55844122715712" width="146.7534023169298"><g><svg viewBox="0 0 146.7534023169298 191.55844122715712" height="191.55844122715712" width="146.7534023169298"><g><svg viewBox="0 0 213.1584412271571 278.2374929046146" height="191.55844122715712" width="146.7534023169298"><g transform="matrix(1,0,0,1,0,159.0914686664499)"><svg viewBox="0 0 213.1584412271571 119.14602423816469" height="119.14602423816469" width="213.1584412271571"><g><svg viewBox="0 0 213.1584412271571 119.14602423816469" height="119.14602423816469" width="213.1584412271571"><g><svg viewBox="0 0 213.1584412271571 119.14602423816469" height="119.14602423816469" width="213.1584412271571"><g transform="matrix(1,0,0,1,0,0)"><svg width="213.1584412271571" viewBox="1.51 -36.06 65.42999999999999 36.57" height="119.14602423816469" data-palette-color="#ffffff"><path d="M10.28 0L1.51 0 1.51-2.12 4.13-2.29 16.75-35.55 19.53-35.55 32.06-2.29 34.67-2.12 34.67 0 25.9 0 25.9-2.12 29.03-2.34 26.07-10.38 10.13-10.38 7.15-2.34 10.28-2.12 10.28 0ZM17.55-30.4L11.08-12.94 25.12-12.94 18.7-30.4 18.21-31.84 18.07-31.84 17.55-30.4ZM52.12 0.51L52.12 0.51Q48.75 0.51 46.02-0.78 43.28-2.08 41.33-4.47 39.38-6.86 38.33-10.17 37.28-13.48 37.28-17.53L37.28-17.53 37.28-17.99Q37.28-22.05 38.32-25.35 39.35-28.66 41.31-31.07 43.26-33.47 45.99-34.77 48.73-36.06 52.1-36.06L52.1-36.06Q55.54-36.06 58.29-34.77 61.03-33.47 62.97-31.07 64.91-28.66 65.93-25.35 66.94-22.05 66.94-17.99L66.94-17.99 66.94-17.53Q66.94-13.48 65.93-10.17 64.91-6.86 62.99-4.47 61.06-2.08 58.31-0.78 55.56 0.51 52.12 0.51ZM52.12-2.05L52.12-2.05Q55.98-2.05 58.63-3.98 61.28-5.91 62.64-9.4 64.01-12.89 64.01-17.53L64.01-17.53 64.01-18.04Q64.01-22.68 62.63-26.15 61.25-29.61 58.59-31.56 55.93-33.5 52.1-33.5L52.1-33.5Q48.41-33.5 45.75-31.56 43.09-29.61 41.66-26.14 40.23-22.66 40.23-18.04L40.23-18.04 40.23-17.53Q40.23-12.89 41.66-9.4 43.09-5.91 45.76-3.98 48.44-2.05 52.12-2.05Z" opacity="1" transform="matrix(1,0,0,1,0,0)" fill="#ffffff" class="undefined-text-0" data-fill-palette-color="quaternary" id="text-0"></path></svg></g></svg></g></svg></g></svg></g><g transform="matrix(1,0,0,1,40.713262274387006,0)"><svg viewBox="0 0 131.7319166783831 130.96395184840094" height="130.96395184840094" width="131.7319166783831"><g><svg xmlns="http://www.w3.org/2000/svg" viewBox="20 20.173631984616488 60.018743579525974 59.668848995350714" x="0" y="0" height="130.96395184840094" width="131.7319166783831" class="icon-icon-0" data-fill-palette-color="quaternary" id="icon-0"><g data-name="Calque 2" fill="#ffffff" data-fill-palette-color="quaternary"><path d="M23.82 23.07A1.82 1.82 0 1 1 22 24.88 1.82 1.82 0 0 1 23.82 23.07Zm0 5.58a3.73 3.73 0 0 0 2-0.56c2.07 1.44 9.08 6.45 10.21 7.14a6.25 6.25 0 0 0 3.19 1.25c0.63 0 2 0.06 4.13 0.06A2.75 2.75 0 0 0 45.8 38a2.76 2.76 0 1 0-2.69-3.32c-1.94 0-3.26 0-3.82-0.06A3.81 3.81 0 0 1 37 33.71c-1-0.63-7.64-5.39-9.9-7A4 4 0 0 0 27.57 25a3.7 3.7 0 0 0-3.7-3.7 3.74 3.74 0 0 0-3.7 3.7A3.6 3.6 0 0 0 23.82 28.64Z" fill="#ffffff" data-fill-palette-color="quaternary"></path><path d="M22.13 44.61a1.82 1.82 0 1 1 1.82 1.82A1.78 1.78 0 0 1 22.13 44.61Zm5.39 0.94H33a2.71 2.71 0 0 0 2.57 1.82 2.76 2.76 0 0 0 0-5.51A2.71 2.71 0 0 0 33 43.67H27.52a3.76 3.76 0 0 0-3.57-2.76 3.7 3.7 0 0 0-3.7 3.7 3.74 3.74 0 0 0 3.7 3.7A3.52 3.52 0 0 0 27.52 45.55Z" fill="#ffffff" data-fill-palette-color="quaternary"></path><path d="M28.33 49.87a1.82 1.82 0 1 1-1.82 1.82A1.82 1.82 0 0 1 28.33 49.87Zm0 5.58a3.7 3.7 0 0 0 3.57-2.76H33a2.72 2.72 0 0 0 2.57 1.82 2.76 2.76 0 0 0 0-5.51A2.71 2.71 0 0 0 33 50.81H31.9a3.76 3.76 0 0 0-3.57-2.76 3.7 3.7 0 0 0 0 7.39Z" fill="#ffffff" data-fill-palette-color="quaternary"></path><path d="M23.7 75.24a1.82 1.82 0 1 1 1.82-1.82A1.78 1.78 0 0 1 23.7 75.24Zm1.06-5.39V63.4c0-2.94 1-3.57 2.69-3.57 2.07 0 4.38 0 5.39 0.06a2.73 2.73 0 0 0 2.63 1.82 2.76 2.76 0 1 0 0-5.51A2.71 2.71 0 0 0 32.9 58c-1.06 0-3.38-0.06-5.39-0.06-4.64 0-4.64 4.07-4.64 5.45v6.39A3.76 3.76 0 0 0 20 73.42a3.7 3.7 0 0 0 3.7 3.7 3.74 3.74 0 0 0 3.7-3.7A3.58 3.58 0 0 0 24.76 69.86Z" fill="#ffffff" data-fill-palette-color="quaternary"></path><path d="M75.06 75.24a1.82 1.82 0 1 1 1.82-1.82A1.82 1.82 0 0 1 75.06 75.24Zm0.81-5.45V63.4c0-1.31 0-5.45-4.57-5.45-2.07 0-4.38 0-5.39 0.06a2.71 2.71 0 0 0-2.57-1.82 2.76 2.76 0 1 0 0 5.51A2.85 2.85 0 0 0 66 59.9c1.06 0 3.38-0.06 5.39-0.06C73 59.83 74 60.4 74 63.4v6.45a3.7 3.7 0 0 0 1 7.26 3.71 3.71 0 0 0 0.82-7.33Z" fill="#ffffff" data-fill-palette-color="quaternary"></path><path d="M72.42 23.69A1.57 1.57 0 1 1 74 25.26 1.59 1.59 0 0 1 72.42 23.69ZM63.59 47.37A2.76 2.76 0 0 0 66 45.86h4.57c4.26 0 4.26-3.76 4.26-5V27a3.46 3.46 0 1 0-4.26-3.38A3.44 3.44 0 0 0 73.05 27v13.9c0 2.63-0.82 3.13-2.38 3.13H66.35a2.75 2.75 0 0 0-5.45 0.56A2.63 2.63 0 0 0 63.59 47.37Z" fill="#ffffff" data-fill-palette-color="quaternary"></path><path d="M76.37 50.13a1.82 1.82 0 1 1-1.82 1.82A1.78 1.78 0 0 1 76.37 50.13Zm-13 4.57A2.71 2.71 0 0 0 66 52.88h6.77a3.76 3.76 0 0 0 3.57 2.76A3.7 3.7 0 1 0 72.74 51H66a2.71 2.71 0 0 0-2.57-1.82 2.78 2.78 0 0 0-2.76 2.76A2.73 2.73 0 0 0 63.4 54.7Z" fill="#ffffff" data-fill-palette-color="quaternary"></path><rect x="40.48" y="39.98" width="18.04" height="23.93" rx="3.95" ry="3.95" fill="#ffffff" data-fill-palette-color="quaternary"></rect><path d="M40.48 24.45a1.82 1.82 0 1 1-1.82 1.82A1.86 1.86 0 0 1 40.48 24.45Zm0 5.58A3.7 3.7 0 0 0 44 27.33h6.26c0.69 0 1.31 0 1.57 0.25s0.31 0.44 0.31 1.25c0 1.13 0 2.63-0.06 3.82a2.76 2.76 0 1 0 3.76 2.57 2.76 2.76 0 0 0-1.94-2.63c0-1.19 0.06-2.63 0.06-3.76a3.32 3.32 0 0 0-0.82-2.57 3.69 3.69 0 0 0-2.88-0.75h-6.2A3.71 3.71 0 1 0 40.48 30Z" fill="#ffffff" data-fill-palette-color="quaternary"></path><path d="M35 76.18a1.82 1.82 0 1 1-1.82-1.82A1.78 1.78 0 0 1 35 76.18ZM45.8 66A2.71 2.71 0 0 0 43.3 67.6h-7c-1.31 0-4.07 0-4.07 3.7v1.25a3.68 3.68 0 0 0 0.88 7.27 3.74 3.74 0 0 0 3.7-3.7 3.7 3.7 0 0 0-2.69-3.57c0-0.37-0.06-0.82-0.06-1.25 0-1.69 0.56-1.82 2.19-1.82h6.83a2.69 2.69 0 0 0 2.63 2 2.78 2.78 0 0 0 2.76-2.76A2.69 2.69 0 0 0 45.8 66Z" fill="#ffffff" data-fill-palette-color="quaternary"></path><path d="M62.71 78a1.82 1.82 0 0 1-1.82-1.82 1.87 1.87 0 0 1 1.82-1.88 1.82 1.82 0 0 1 1.82 1.82A1.87 1.87 0 0 1 62.71 78Zm0.88-5.45V71.29c0-3.7-2.76-3.7-4.07-3.7H55.7A2.67 2.67 0 0 0 53.2 66a2.76 2.76 0 1 0 2.63 3.51h3.7c1.63 0 2.19 0.12 2.19 1.82a8.09 8.09 0 0 1-0.06 1.25 3.7 3.7 0 1 0 4.7 3.57A3.57 3.57 0 0 0 63.59 72.55Z" fill="#ffffff" data-fill-palette-color="quaternary"></path></g></svg></g></svg></g><g></g></svg></g></svg></g></svg></g></svg></g><defs></defs></svg><rect width="333.90454557049503" height="333.90454557049503" fill="none" stroke="none" visibility="hidden"></rect></g></svg></g></svg>